<?xml version="1.0" standalone="no"?>
<!DOCTYPE svg PUBLIC "-//W3C//DTD SVG 20010904//EN"
 "http://www.w3.org/TR/2001/REC-SVG-20010904/DTD/svg10.dtd">
<svg version="1.0" xmlns="http://www.w3.org/2000/svg"
 width="700.000000pt" height="700.000000pt" viewBox="0 0 700.000000 700.000000"
 preserveAspectRatio="xMidYMid meet">
<metadata>
Created by potrace 1.11, written by Peter Selinger 2001-2013
</metadata>
<g transform="translate(0.000000,700.000000) scale(0.100000,-0.100000)"
fill="#000000" stroke="none">
<path d="M3295 6924 c-94 -5 -253 -24 -335 -40 -181 -34 -282 -56 -360 -77
-84 -23 -273 -86 -293 -97 -9 -6 -39 -17 -65 -26 -52 -18 -310 -142 -412 -199
-153 -86 -352 -224 -500 -349 -102 -86 -330 -310 -398 -391 -99 -118 -181
-227 -243 -320 -92 -139 -111 -170 -239 -410 -14 -27 -39 -81 -54 -120 -15
-38 -31 -74 -35 -80 -5 -5 -11 -19 -14 -30 -3 -11 -17 -51 -32 -90 -30 -80
-43 -116 -56 -162 -5 -18 -13 -48 -18 -65 -22 -75 -43 -156 -51 -193 -4 -22
-13 -64 -19 -94 -55 -267 -79 -702 -53 -956 23 -221 52 -394 87 -520 7 -27 18
-68 24 -90 38 -147 93 -298 178 -495 23 -53 87 -184 93 -190 3 -3 13 -21 23
-40 25 -50 61 -114 67 -120 3 -3 10 -14 17 -25 73 -122 90 -148 100 -152 7 -3
13 -9 13 -15 0 -11 54 -92 79 -118 22 -23 51 -60 51 -64 0 -4 57 -70 93 -108
15 -16 27 -32 27 -34 0 -16 294 -295 393 -374 11 -8 24 -20 31 -26 6 -5 38
-30 71 -54 33 -24 62 -47 63 -52 2 -4 8 -8 13 -8 6 0 15 -4 22 -10 25 -20 147
-100 184 -119 21 -12 83 -46 138 -76 90 -50 237 -123 290 -145 11 -4 37 -15
57 -24 42 -19 286 -100 368 -123 68 -19 103 -26 210 -47 47 -9 100 -22 119
-27 44 -15 154 -26 394 -40 153 -10 241 -10 395 -1 278 17 344 28 702 111 19
5 46 13 60 19 14 5 66 22 115 38 50 15 95 30 100 34 6 4 28 13 50 20 22 7 44
16 50 21 5 5 16 9 24 9 12 0 146 65 422 205 10 5 19 13 19 17 0 5 5 8 10 8 10
0 89 48 100 61 3 3 24 16 48 29 23 13 42 27 42 31 0 4 8 10 18 13 10 4 27 14
38 24 10 9 37 30 59 46 22 17 42 32 45 35 5 6 82 68 124 101 23 17 300 294
332 331 109 126 314 405 314 427 0 6 4 12 9 14 8 3 114 186 140 243 7 17 20
42 27 56 28 53 52 105 67 139 40 92 51 121 77 200 36 106 51 149 61 175 4 11
10 31 14 45 3 14 17 68 31 120 57 221 104 613 104 861 0 230 -44 552 -112 814
-49 189 -50 191 -91 305 -33 90 -48 128 -84 210 -19 41 -130 266 -147 295 -6
11 -27 48 -46 83 -19 34 -38 62 -42 62 -5 0 -8 5 -8 10 0 6 -16 33 -35 60 -19
27 -35 54 -35 60 0 5 -4 10 -8 10 -4 0 -16 14 -26 30 -16 29 -160 212 -210
269 -33 38 -310 314 -332 331 -55 43 -120 96 -129 106 -5 6 -26 22 -45 35 -19
13 -44 31 -54 41 -11 10 -28 20 -38 24 -10 3 -18 9 -18 13 0 4 -19 18 -42 31
-24 13 -45 26 -48 29 -11 13 -90 61 -100 61 -5 0 -10 4 -10 9 0 10 -384 202
-460 229 -30 11 -77 29 -105 40 -42 17 -192 65 -320 102 -63 18 -353 73 -480
90 -81 11 -491 21 -600 14z m405 -164 c262 -22 533 -64 630 -99 14 -5 63 -19
110 -32 47 -12 108 -32 135 -45 28 -12 64 -26 80 -30 30 -7 50 -15 112 -48 17
-9 36 -16 43 -16 12 0 40 -13 183 -89 95 -49 231 -127 252 -144 6 -4 51 -35
100 -69 50 -33 92 -65 93 -70 2 -4 8 -8 14 -8 5 0 15 -6 22 -12 7 -7 29 -26
50 -43 21 -16 48 -39 61 -50 12 -11 48 -42 80 -70 64 -55 185 -172 185 -178 0
-3 19 -24 43 -48 72 -75 117 -128 117 -138 0 -5 4 -11 8 -13 5 -1 28 -28 51
-58 l43 -54 -89 -18 c-48 -10 -108 -22 -133 -27 -25 -5 -76 -16 -115 -25 -38
-9 -133 -29 -210 -45 -77 -16 -194 -41 -260 -56 -66 -14 -142 -30 -170 -35
-27 -5 -79 -16 -115 -24 -36 -9 -123 -27 -195 -41 -71 -14 -152 -32 -180 -39
-96 -25 -200 -49 -235 -53 -19 -3 -43 -9 -52 -14 -9 -5 -34 -9 -56 -9 -22 0
-59 -7 -83 -16 -44 -15 -125 -35 -229 -55 -84 -16 -125 -25 -255 -54 -66 -14
-138 -29 -160 -32 -22 -3 -47 -9 -56 -14 -9 -4 -43 -13 -75 -18 -74 -13 -509
-105 -610 -129 -32 -7 -163 -117 -152 -127 6 -7 48 1 388 76 52 12 115 25 140
29 52 10 89 18 260 55 69 15 143 31 165 35 34 7 182 38 430 92 28 5 84 16 125
23 41 8 92 18 112 23 20 5 39 7 42 4 4 -3 6 0 6 6 0 8 18 12 49 12 28 0 53 5
56 10 3 6 22 10 42 10 20 0 59 6 87 14 28 8 78 20 111 26 85 16 250 52 325 70
31 8 93 21 245 50 22 5 72 15 110 24 39 9 93 21 120 26 53 10 104 22 170 39
22 5 55 12 72 16 18 3 79 15 135 26 57 12 123 25 148 30 25 5 72 15 105 22 55
13 61 12 70 -5 5 -10 25 -38 43 -63 l33 -45 -32 0 c-18 0 -55 -6 -83 -14 -28
-8 -78 -20 -111 -27 -33 -7 -64 -15 -70 -18 -5 -3 -28 -6 -50 -8 -22 -2 -62
-10 -90 -17 -88 -24 -145 -36 -170 -36 -14 0 -25 -4 -25 -10 0 -5 -15 -10 -34
-10 -36 0 -103 -12 -196 -35 -30 -8 -71 -17 -90 -20 -40 -8 -251 -52 -425 -89
-66 -15 -133 -29 -150 -32 -16 -3 -55 -11 -85 -19 -30 -7 -82 -19 -115 -25
-33 -7 -90 -21 -127 -31 -36 -10 -80 -19 -97 -19 -29 0 -59 -7 -216 -47 -33
-9 -98 -24 -145 -34 -47 -10 -139 -29 -205 -44 -66 -14 -140 -30 -165 -34 -41
-8 -329 -70 -425 -91 -126 -27 -284 -61 -310 -66 -16 -3 -48 -9 -70 -14 -22
-5 -57 -12 -77 -15 -41 -6 -51 -31 -23 -55 18 -15 -2 -18 360 61 28 6 68 15
90 19 55 10 327 68 400 85 33 8 94 21 135 29 41 8 129 27 195 41 66 15 161 33
210 41 50 8 104 19 121 24 17 6 41 10 53 10 12 0 30 4 40 10 10 5 33 11 52 13
19 2 41 7 49 10 8 4 44 11 80 18 36 6 83 14 105 19 22 4 66 13 98 19 31 5 62
13 67 16 5 3 36 11 67 16 134 25 331 66 368 77 17 5 62 15 100 22 39 6 86 16
105 20 19 5 62 14 95 20 33 7 74 16 91 22 18 5 54 13 80 17 87 15 208 41 259
56 53 15 204 45 268 52 20 3 37 9 37 14 0 5 21 9 48 9 42 0 49 -4 68 -33 41
-64 169 -335 195 -412 7 -22 17 -45 21 -51 8 -11 42 -110 58 -169 5 -16 16
-50 25 -74 15 -40 36 -135 71 -321 37 -194 46 -296 46 -561 0 -243 -11 -397
-34 -499 -5 -25 -14 -70 -19 -100 -16 -106 -41 -213 -74 -315 -7 -22 -18 -60
-25 -85 -8 -25 -17 -49 -22 -55 -4 -5 -8 -18 -8 -30 0 -11 -6 -29 -13 -40 -7
-11 -19 -38 -26 -60 -58 -170 -227 -485 -369 -684 -89 -126 -277 -351 -293
-351 -5 0 -9 -5 -9 -10 0 -11 -97 -108 -185 -185 -32 -27 -68 -59 -80 -70 -13
-12 -38 -32 -56 -45 -18 -14 -41 -33 -51 -42 -10 -10 -22 -18 -27 -18 -5 0
-11 -4 -13 -8 -1 -5 -43 -37 -93 -70 -49 -34 -94 -65 -100 -70 -71 -56 -451
-246 -585 -292 -19 -7 -44 -16 -55 -20 -75 -30 -279 -91 -370 -111 -122 -27
-245 -47 -370 -60 -55 -6 -116 -12 -135 -15 -76 -9 -420 -6 -510 5 -182 21
-422 63 -500 86 -25 8 -63 18 -85 23 -115 29 -219 65 -390 137 -73 31 -236
113 -303 152 -41 24 -78 43 -83 43 -5 0 -9 5 -9 10 0 6 -5 10 -11 10 -13 0
-263 165 -287 189 -10 10 -37 33 -62 52 -151 116 -408 377 -525 534 -17 21
-38 48 -48 58 -10 10 -17 20 -15 22 2 2 28 9 58 14 30 6 79 15 108 20 30 6 59
14 65 19 10 8 61 20 117 27 61 8 236 42 310 60 30 7 78 18 105 23 143 29 174
35 220 48 42 11 167 37 360 74 22 5 72 15 110 24 39 9 93 21 120 26 49 10 105
21 350 75 66 14 140 30 165 34 25 5 77 16 115 25 39 9 95 21 125 27 30 6 73
15 95 19 22 5 63 13 90 18 28 6 68 15 90 20 22 6 67 16 100 22 33 6 76 15 95
20 19 5 62 14 95 20 33 6 85 17 115 25 53 13 86 20 215 45 33 6 85 18 115 25
30 7 82 19 115 25 33 6 78 16 100 21 22 5 74 16 115 24 41 9 127 27 190 41 63
13 135 29 160 33 25 5 77 16 115 25 39 9 90 21 115 25 127 24 409 87 414 92 2
2 -1 28 -7 57 -10 46 -14 53 -32 49 -95 -23 -168 -39 -210 -47 -27 -5 -79 -16
-115 -24 -65 -15 -330 -72 -405 -86 -22 -4 -71 -15 -110 -24 -38 -9 -90 -21
-115 -25 -190 -37 -233 -47 -285 -59 -22 -6 -67 -16 -100 -22 -33 -6 -76 -15
-95 -20 -82 -19 -239 -53 -325 -70 -138 -27 -163 -32 -215 -45 -30 -8 -82 -19
-115 -25 -33 -6 -78 -16 -100 -20 -22 -5 -65 -14 -95 -20 -30 -6 -80 -17 -110
-25 -53 -13 -84 -19 -215 -45 -33 -6 -85 -18 -115 -25 -30 -7 -82 -19 -115
-25 -33 -6 -78 -16 -100 -21 -22 -5 -74 -16 -115 -24 -41 -9 -127 -27 -190
-41 -63 -13 -137 -29 -165 -34 -27 -5 -81 -17 -120 -26 -38 -9 -88 -20 -110
-24 -22 -4 -87 -18 -145 -30 -58 -12 -116 -24 -130 -27 -14 -2 -54 -11 -90
-19 -77 -18 -124 -28 -205 -44 -33 -6 -85 -17 -115 -25 -54 -13 -93 -21 -215
-45 -33 -6 -74 -15 -91 -21 -64 -19 -67 -18 -120 77 l-24 44 22 4 c195 37 282
57 418 92 36 9 85 19 110 21 25 3 50 8 55 12 6 4 28 9 50 10 22 1 63 8 90 15
28 8 77 19 110 26 95 19 135 27 205 44 57 14 249 54 365 76 22 5 72 15 110 24
39 9 84 19 100 22 32 6 89 18 158 34 23 5 53 12 67 15 14 2 79 16 145 30 66
14 140 30 165 34 25 5 77 16 115 25 39 9 90 21 115 25 117 23 168 34 205 42
22 4 85 18 140 29 55 12 116 25 135 30 19 5 71 16 115 25 44 9 96 21 115 25
35 8 84 18 195 40 33 6 85 18 115 25 30 7 82 19 115 25 33 6 78 16 100 21 22
4 85 18 140 30 55 11 141 29 190 40 50 11 113 24 140 29 28 5 82 17 120 26 39
9 88 20 110 24 242 47 325 68 325 81 0 4 -4 19 -10 33 -8 22 -13 24 -47 20
-21 -3 -60 -12 -88 -19 -27 -7 -75 -18 -105 -24 -163 -32 -211 -42 -275 -57
-38 -9 -90 -20 -115 -25 -101 -20 -530 -111 -635 -135 -38 -9 -90 -20 -115
-25 -59 -11 -294 -61 -445 -94 -66 -14 -142 -30 -170 -35 -27 -5 -79 -16 -115
-24 -36 -9 -123 -27 -195 -41 -71 -14 -143 -30 -160 -35 -16 -5 -66 -16 -110
-25 -44 -8 -98 -19 -120 -24 -22 -5 -67 -15 -100 -21 -33 -6 -85 -17 -115 -25
-117 -28 -151 -35 -173 -35 -13 0 -27 -4 -33 -9 -5 -5 -29 -11 -54 -14 -58 -7
-111 -17 -130 -24 -8 -3 -19 -7 -25 -7 -10 -2 -47 -9 -120 -26 -22 -5 -69 -14
-105 -20 -36 -7 -87 -18 -115 -26 -44 -12 -115 -26 -265 -55 -25 -5 -74 -15
-110 -23 -65 -15 -329 -71 -405 -86 -22 -4 -71 -15 -110 -24 -131 -31 -141
-31 -156 -3 -46 86 -131 262 -153 317 -15 36 -31 73 -36 83 -24 42 -117 342
-140 452 -7 33 -18 83 -25 110 -12 48 -21 109 -47 315 -28 228 -9 665 39 900
8 41 19 93 23 115 11 56 67 267 79 296 5 13 19 51 31 84 68 183 150 364 233
510 29 50 55 95 59 100 4 6 43 62 85 126 70 104 106 153 153 209 8 10 35 42
60 71 65 78 273 286 355 355 39 32 72 62 73 67 2 4 10 7 18 7 8 0 14 4 14 9 0
5 15 19 33 30 18 11 44 30 57 42 38 33 138 99 149 99 6 0 11 3 11 8 0 4 24 20
53 36 28 16 59 34 67 41 24 20 257 137 345 174 44 19 94 40 110 47 356 153
960 248 1365 214z"/>
<path d="M4705 4583 c-22 -2 -58 -8 -80 -13 -71 -17 -319 -72 -358 -80 -21 -4
-40 -9 -42 -12 -2 -2 4 -40 15 -83 16 -69 87 -381 110 -485 10 -42 77 -337 84
-365 3 -11 15 -63 26 -115 12 -52 28 -124 36 -160 8 -36 19 -83 24 -105 28
-122 35 -148 46 -152 6 -2 60 8 120 22 60 14 159 37 219 52 131 30 130 30 222
76 82 42 96 52 167 122 54 54 65 69 107 155 41 83 56 156 58 278 3 146 -15
247 -72 417 -72 218 -251 393 -442 435 -52 11 -170 17 -240 13z m248 -217 c73
-38 85 -49 140 -117 41 -52 97 -159 97 -187 0 -10 5 -23 11 -29 6 -6 15 -29
19 -50 4 -21 13 -63 19 -93 43 -210 2 -396 -114 -512 -47 -46 -155 -106 -217
-120 -21 -4 -57 -13 -80 -18 -95 -23 -118 -24 -118 -5 0 9 -11 65 -25 124 -14
58 -30 124 -35 146 -5 22 -13 61 -19 88 -16 70 -28 120 -56 242 -14 61 -30
130 -35 155 -14 62 -58 255 -72 312 -7 26 -9 50 -6 54 6 6 133 39 183 47 17 3
78 4 136 2 99 -3 110 -6 172 -39z"/>
<path d="M3285 4264 c-33 -8 -82 -19 -110 -25 -27 -6 -66 -15 -85 -19 -19 -4
-72 -16 -117 -25 -56 -12 -83 -22 -83 -32 0 -8 16 -85 36 -171 51 -222 51
-221 64 -282 7 -30 16 -71 20 -90 4 -19 13 -55 18 -80 5 -25 22 -97 37 -160
15 -63 31 -133 36 -155 4 -22 12 -58 18 -80 5 -22 19 -83 31 -135 59 -267 72
-311 90 -304 8 3 38 10 65 16 56 11 80 16 215 47 142 32 171 42 281 95 149 71
263 216 306 391 18 74 20 276 3 360 -26 132 -74 278 -110 335 -5 8 -21 35 -36
60 -55 90 -166 185 -264 224 -115 47 -288 59 -415 30z m251 -170 c99 -28 162
-73 226 -159 82 -109 128 -238 148 -412 16 -135 3 -246 -38 -333 -27 -57 -141
-180 -166 -180 -8 0 -16 -3 -18 -8 -4 -9 -146 -57 -198 -67 -19 -4 -52 -11
-73 -15 -26 -5 -40 -4 -42 4 -1 6 -8 38 -15 71 -7 33 -18 80 -25 105 -7 25
-18 74 -25 110 -6 36 -15 76 -20 90 -4 14 -13 52 -20 85 -6 33 -18 85 -25 115
-15 60 -28 116 -46 200 -6 30 -16 69 -21 85 -5 17 -14 53 -19 80 -11 57 -24
117 -34 160 l-6 30 78 18 c177 41 254 46 339 21z"/>
<path d="M2150 4034 c-43 -8 -151 -44 -195 -65 -66 -31 -171 -124 -213 -187
-20 -31 -40 -58 -44 -60 -5 -2 -8 -10 -8 -18 0 -8 -6 -25 -14 -37 -36 -59 -51
-150 -51 -307 0 -197 25 -314 103 -480 44 -95 76 -141 145 -211 142 -144 316
-206 508 -179 92 12 183 37 230 62 68 38 140 92 188 143 65 68 65 70 27 230
-14 61 -30 133 -36 160 -28 131 -69 297 -74 302 -2 3 -78 -12 -168 -32 -90
-21 -183 -41 -208 -45 -25 -5 -57 -13 -71 -18 -25 -10 -26 -12 -17 -54 16 -70
31 -118 36 -118 7 0 107 25 177 45 28 7 63 15 80 17 32 3 27 12 54 -107 5 -22
19 -83 31 -135 29 -126 28 -133 -11 -168 -76 -69 -179 -104 -298 -104 -96 1
-149 16 -214 61 -41 28 -55 41 -110 102 -33 37 -100 171 -125 249 -27 88 -54
251 -51 314 8 143 64 281 145 355 88 81 178 115 301 114 73 -1 90 -5 154 -37
68 -33 89 -37 89 -16 0 5 14 32 30 60 17 28 30 56 30 63 0 17 -54 50 -125 76
-59 22 -233 37 -295 25z"/>
<path d="M4723 2248 c-56 -18 -123 -92 -123 -135 0 -19 25 -43 45 -43 3 0 5
15 4 33 -5 71 32 110 114 122 45 7 49 6 81 -28 69 -73 55 -236 -29 -336 -28
-33 -91 -68 -103 -57 -9 10 -2 158 14 274 8 63 13 116 11 119 -3 2 -14 0 -24
-5 -23 -13 -40 -93 -49 -237 -4 -55 -8 -109 -9 -121 -4 -41 12 -64 47 -64 118
0 238 151 238 301 0 147 -87 218 -217 177z"/>
<path d="M4343 2158 c-11 -13 -17 -35 -34 -123 -19 -96 -18 -95 -45 -95 -53 0
-98 -52 -123 -142 -13 -47 -55 -98 -68 -84 -16 16 -3 167 22 260 29 110 31
146 10 146 -22 0 -40 -44 -60 -148 -17 -81 -21 -91 -38 -86 -44 14 -110 -66
-141 -172 -8 -27 -40 -64 -55 -64 -13 0 -11 106 2 127 10 16 -27 53 -52 53
-82 0 -170 -180 -117 -239 21 -23 40 -19 79 17 21 20 30 23 39 14 7 -7 21 -12
33 -12 22 0 68 36 78 60 5 13 6 13 6 -1 2 -40 83 -38 96 3 3 9 13 22 21 29 12
10 18 8 30 -9 20 -29 46 -28 84 5 29 24 33 25 42 10 5 -9 18 -17 29 -17 22 0
70 44 86 80 l12 25 0 -28 c1 -19 8 -31 26 -39 21 -9 29 -7 60 16 19 15 35 34
35 42 0 13 3 13 22 0 30 -22 42 -20 77 9 l30 26 -9 -31 c-5 -17 -26 -47 -46
-65 -29 -27 -37 -42 -38 -72 -1 -34 2 -38 26 -41 36 -4 62 27 82 98 9 33 25
65 35 72 24 17 61 78 61 101 0 28 -15 19 -28 -17 -7 -19 -19 -40 -27 -46 -13
-11 -15 -2 -15 65 0 66 -2 76 -16 71 -9 -3 -18 -6 -20 -6 -2 0 -4 -13 -4 -29
0 -35 -39 -111 -57 -111 -16 0 -20 27 -12 100 3 29 1 35 -16 35 -20 0 -25 -11
-45 -92 -6 -24 -22 -55 -35 -70 -21 -24 -26 -26 -35 -13 -5 8 -10 29 -10 47 0
29 27 177 50 268 5 22 10 50 10 63 0 24 -21 30 -37 10z m-63 -271 c0 -50 -50
-147 -75 -147 -19 0 -24 21 -16 66 9 49 25 79 53 98 26 18 38 13 38 -17z
m-265 -69 c-4 -24 -11 -47 -16 -52 -5 -6 -9 -18 -9 -28 0 -10 -4 -18 -10 -18
-5 0 -10 -6 -10 -14 0 -16 -27 -29 -41 -20 -35 21 28 174 73 174 18 0 19 -4
13 -42z m-238 -34 c6 -16 3 -22 -38 -107 -46 -94 -84 -80 -56 20 23 81 77 131
94 87z m733 -68 c0 -15 -32 -76 -40 -76 -15 0 -12 28 6 55 14 21 34 34 34 21z"/>
<path d="M5483 2134 c-30 -33 -32 -34 -38 -14 -12 38 -39 19 -46 -31 -10 -65
-41 -119 -69 -119 -8 0 -10 22 -6 72 2 40 0 80 -5 90 -13 24 -44 23 -84 -2
-39 -24 -53 -45 -84 -121 -28 -72 -68 -112 -107 -107 -43 5 -45 41 -4 58 67
28 106 125 60 150 -15 8 -27 7 -47 -4 -50 -26 -82 -78 -90 -146 -5 -43 -3 -51
20 -74 40 -40 81 -32 140 26 19 20 27 23 27 13 0 -18 38 -35 59 -27 21 8 51
40 51 54 0 6 7 4 18 -5 24 -22 53 -21 78 2 11 10 30 18 43 17 25 -1 27 1 62
82 37 86 82 95 78 17 -2 -24 3 -50 10 -59 19 -23 54 -20 79 7 34 36 55 107 32
107 -5 0 -10 -8 -10 -17 0 -22 -36 -83 -49 -83 -15 0 -20 27 -12 58 6 21 4 39
-6 61 -22 44 -58 42 -100 -5z m-186 -30 c3 -8 0 -27 -7 -42 -56 -119 -73 -143
-92 -124 -9 9 -8 25 2 68 20 84 79 144 97 98z m-248 -100 c-18 -19 -35 -32
-37 -29 -8 7 20 68 42 93 l21 24 3 -27 c3 -20 -5 -37 -29 -61z"/>
<path d="M3395 1969 c-50 -14 -113 -75 -121 -115 -6 -35 7 -64 31 -64 8 0 12
15 11 44 -1 50 20 81 71 102 68 29 115 11 149 -56 55 -109 -24 -321 -133 -358
l-33 -11 0 42 c0 43 26 275 36 335 5 24 3 32 -9 32 -37 0 -46 -36 -67 -274
-12 -146 -10 -156 37 -156 75 0 172 77 214 168 42 91 29 234 -27 289 -31 31
-97 40 -159 22z"/>
<path d="M3123 1893 c-23 -33 -30 -50 -49 -121 -11 -43 -44 -221 -44 -242 0
-10 -46 -57 -74 -75 -28 -19 -29 -19 -47 4 -11 13 -19 26 -19 30 0 3 18 16 41
29 38 22 79 73 79 99 0 7 -9 21 -21 32 -18 17 -24 18 -51 7 -35 -15 -88 -88
-88 -123 0 -61 -90 -142 -125 -113 -25 21 -17 45 18 58 43 16 79 70 75 114 -3
28 -7 34 -31 36 -61 7 -138 -114 -123 -191 14 -71 104 -75 163 -7 20 23 22 24
40 8 10 -9 25 -17 33 -19 23 -4 80 11 80 22 0 5 6 9 13 9 7 0 21 14 32 32 l19
32 9 -27 c15 -47 40 -30 56 38 25 106 56 154 84 126 14 -14 -1 -48 -23 -54
-47 -12 -4 -107 49 -107 38 0 81 55 81 105 0 39 -14 29 -29 -19 -7 -25 -19
-47 -27 -50 -19 -7 -43 3 -54 24 -7 14 -4 21 14 33 59 39 47 121 -17 115 -23
-2 -38 -13 -59 -43 -15 -22 -29 -49 -31 -60 -3 -11 -3 4 -1 33 2 38 10 63 27
86 44 58 63 164 34 193 -13 13 -17 11 -34 -14z m16 -89 c-6 -21 -15 -43 -20
-49 -5 -5 -3 13 6 40 8 28 15 52 15 54 0 2 2 2 5 0 2 -3 0 -23 -6 -45z m-169
-189 c0 -8 -16 -32 -36 -53 l-36 -37 6 34 c6 36 32 69 54 70 6 1 12 -6 12 -14z
m-190 -38 c0 -23 -56 -94 -67 -84 -6 6 22 72 40 95 15 19 27 14 27 -11z"/>
<path d="M2505 1774 c-71 -37 -122 -135 -132 -254 -6 -78 8 -138 43 -180 22
-25 33 -30 72 -30 38 0 52 5 77 30 28 27 33 29 45 15 7 -8 16 -15 19 -15 4 0
8 47 9 104 1 99 0 104 -21 110 -40 11 -85 6 -101 -10 -24 -24 -10 -34 38 -28
42 6 43 6 41 -22 -5 -62 -28 -126 -51 -141 -30 -19 -77 -9 -93 20 -49 93 -12
299 65 367 57 50 79 16 49 -77 -6 -19 -4 -23 13 -23 43 0 59 93 22 130 -24 24
-54 25 -95 4z"/>
</g>
</svg>
